<svg xmlns="http://www.w3.org/2000/svg" viewBox="0 0 100 86.6">
  <defs>
    <style>
      .a {
        fill: #333;
      }

      .b {
        fill: #0071bc;
      }

      .c, .e {
        fill: #f2f2f2;
      }

      .d {
        font-size: 10px;
        fill: #fff;
        font-family: KozGoPr6N-Regular-83pv-RKSJ-H, Kozuka Gothic Pr6N;
      }

      .e {
        font-size: 12px;
        font-family: HiraKakuPro-W6-83pv-RKSJ-H, Hiragino Kaku Gothic Pro;
      }
    </style>
  </defs>
  <g>
    <g>
      <polygon class="a" points="25.14 86.35 0.29 43.3 25.14 0.25 74.86 0.25 99.71 43.3 74.86 86.35 25.14 86.35" />
      <path d="M25.29,7.2H74.71L99.42,50,74.71,92.8H25.29L.58,50,25.29,7.2M25,6.7,0,50,25,93.3H75L100,50,75,6.7Z" transform="translate(0 -6.7)" />
    </g>
    <g>
      <polygon class="b" points="26.79 83.5 3.58 43.3 26.79 3.1 73.21 3.1 96.42 43.3 73.21 83.5 26.79 83.5" />
      <path class="c" d="M72.92,10.3,95.85,50,72.92,89.7H27.08L4.15,50,27.08,10.3H72.92m.58-1h-47L3,50,26.5,90.7h47L97,50,73.5,9.3Z" transform="translate(0 -6.7)" />
    </g>
    <circle class="c" cx="50" cy="43.3" r="20" />
    <path class="a" d="M37.5,2.3h25a0,0,0,0,1,0,0v8.76a9.24,9.24,0,0,1-9.24,9.24H46.74a9.24,9.24,0,0,1-9.24-9.24V2.3a0,0,0,0,1,0,0Z" />
    <path class="a" d="M37.5,73h25a0,0,0,0,1,0,0v8.76A9.24,9.24,0,0,1,53.26,91H46.74a9.24,9.24,0,0,1-9.24-9.24V73A0,0,0,0,1,37.5,73Z" transform="translate(100 157.3) rotate(-180)" />
  </g>
  <g>
    <text class="d" transform="matrix(0.77, 0.64, -0.64, 0.77, 63.48, 22.01)">C</text>
    <text class="d" transform="translate(67.97 25.87) rotate(48.76)">I</text>
    <text class="d" transform="translate(69.62 27.4) rotate(58.97)">N</text>
    <text class="d" transform="translate(73.05 33.11) rotate(73.26)">C</text>
    <text class="d" transform="matrix(0.13, 0.99, -0.99, 0.13, 74.64, 38.81)">I</text>
    <text class="d" transform="translate(75.15 41.01) rotate(92.81)">N</text>
    <text class="d" transform="translate(74.88 47.64) rotate(107.94)">N</text>
    <text class="d" transform="translate(72.85 53.98) rotate(122.58)">A</text>
    <text class="d" transform="translate(69.5 59.16) rotate(135.17)">T</text>
    <text class="d" transform="translate(65.86 62.67) rotate(143.55)">I</text>
    <text class="d" transform="matrix(-0.77, -0.64, 0.64, -0.77, 36.52, 64.59)">C</text>
    <text class="d" transform="translate(32.03 60.73) rotate(-131.24)">I</text>
    <text class="d" transform="translate(30.38 59.2) rotate(-121.03)">N</text>
    <text class="d" transform="translate(26.95 53.49) rotate(-106.74)">C</text>
    <text class="d" transform="matrix(-0.13, -0.99, 0.99, -0.13, 25.37, 47.78)">I</text>
    <text class="d" transform="translate(24.86 45.58) rotate(-87.19)">N</text>
    <text class="d" transform="translate(25.12 38.95) rotate(-72.06)">N</text>
    <text class="d" transform="translate(27.15 32.62) rotate(-57.42)">A</text>
    <text class="d" transform="translate(30.5 27.43) rotate(-44.83)">T</text>
    <text class="d" transform="translate(34.14 23.93) rotate(-36.45)">I</text>
    <text class="e" transform="translate(45.73 79.86)">2</text>
    <text class="e" transform="translate(54.27 6.74) rotate(180)">2</text>
  </g>
</svg>