<svg xmlns="http://www.w3.org/2000/svg" viewBox="0 0 100 86.6">
  <defs>
    <style>
      .a {
        fill: #f2f2f2;
      }

      .b {
        fill: #0071bc;
      }

      .c {
        fill: #a67c52;
      }

      .d {
        font-size: 10px;
        fill: #fff;
        font-family: KozGoPr6N-Regular-83pv-RKSJ-H, Kozuka Gothic Pr6N;
      }

      .e {
        font-size: 12px;
        fill: #754c24;
        font-family: HiraKakuPro-W6-83pv-RKSJ-H, Hiragino Kaku Gothic Pro;
      }
    </style>
  </defs>
  <g>
    <g>
      <polygon class="a" points="25.14 86.35 0.29 43.3 25.14 0.25 74.86 0.25 99.71 43.3 74.86 86.35 25.14 86.35"/>
      <path d="M25.29,7.2H74.71L99.42,50,74.71,92.8H25.29L.58,50,25.29,7.2M25,6.7,0,50,25,93.3H75L100,50,75,6.7Z" transform="translate(0 -6.7)"/>
    </g>
    <g>
      <polygon class="b" points="26.79 83.5 3.58 43.3 26.79 3.1 73.21 3.1 96.42 43.3 73.21 83.5 26.79 83.5"/>
      <path class="c" d="M72.92,10.3,95.85,50,72.92,89.7H27.08L4.15,50,27.08,10.3H72.92m.58-1h-47L3,50,26.5,90.7h47L97,50,73.5,9.3Z" transform="translate(0 -6.7)"/>
    </g>
    <circle class="a" cx="50" cy="43.3" r="20"/>
    <path class="a" d="M37.5,2.3h25a0,0,0,0,1,0,0v8.76a9.24,9.24,0,0,1-9.24,9.24H46.74a9.24,9.24,0,0,1-9.24-9.24V2.3a0,0,0,0,1,0,0Z"/>
    <path class="a" d="M37.5,73h25a0,0,0,0,1,0,0v8.76A9.24,9.24,0,0,1,53.26,91H46.74a9.24,9.24,0,0,1-9.24-9.24V73A0,0,0,0,1,37.5,73Z" transform="translate(100 157.3) rotate(-180)"/>
  </g>
  <g>
    <text class="d" transform="translate(62.26 21.21) rotate(37.18)">D</text>
    <text class="d" transform="matrix(0.64, 0.77, -0.77, 0.64, 67.58, 25.33)">E</text>
    <text class="d" transform="translate(70.75 29.1) rotate(61.58)">S</text>
    <text class="d" transform="translate(73.06 33.54) rotate(69.71)"> </text>
    <text class="d" transform="translate(74.1 35.31) rotate(81.58)">M</text>
    <text class="d" transform="matrix(-0.15, 0.99, -0.99, -0.15, 75.27, 43.43)">O</text>
    <text class="d" transform="matrix(-0.33, 0.94, -0.94, -0.33, 74.03, 50.33)">I</text>
    <text class="d" transform="translate(73.52 52.52) rotate(119.51)">N</text>
    <text class="d" transform="translate(70.17 58.3) rotate(132.65)">E</text>
    <text class="d" transform="matrix(-0.81, 0.59, -0.59, -0.81, 66.88, 61.93)">S</text>
    <text class="d" transform="translate(37.74 65.38) rotate(-142.82)">D</text>
    <text class="d" transform="matrix(-0.64, -0.77, 0.77, -0.64, 32.42, 61.27)">E</text>
    <text class="d" transform="translate(29.25 57.5) rotate(-118.42)">S</text>
    <text class="d" transform="translate(26.95 53.06) rotate(-110.29)"> </text>
    <text class="d" transform="translate(25.91 51.28) rotate(-98.42)">M</text>
    <text class="d" transform="matrix(0.15, -0.99, 0.99, 0.15, 24.73, 43.17)">O</text>
    <text class="d" transform="matrix(0.33, -0.94, 0.94, 0.33, 25.97, 36.26)">I</text>
    <text class="d" transform="translate(26.49 34.08) rotate(-60.49)">N</text>
    <text class="d" transform="translate(29.83 28.3) rotate(-47.35)">E</text>
    <text class="d" transform="matrix(0.81, -0.59, 0.59, 0.81, 33.13, 24.67)">S</text>
    <text class="e" transform="translate(45.73 79.86)">4</text>
    <text class="e" transform="translate(54.27 6.74) rotate(180)">4</text>
  </g>
</svg>
