<svg xmlns="http://www.w3.org/2000/svg" viewBox="0 0 100 86.6">
  <defs>
    <style>
      .a {
        fill: #f2f2f2;
      }

      .b {
        fill: #662d91;
      }

      .c {
        fill: #a67c52;
      }

      .d {
        font-size: 10px;
        fill: #fff;
        font-family: KozGoPr6N-Regular-83pv-RKSJ-H, Kozuka Gothic Pr6N;
      }

      .e {
        font-size: 12px;
        fill: #754c24;
        font-family: HiraKakuPro-W6-83pv-RKSJ-H, Hiragino Kaku Gothic Pro;
      }
    </style>
  </defs>
  <g>
    <g>
      <polygon class="a" points="25.14 86.35 0.29 43.3 25.14 0.25 74.86 0.25 99.71 43.3 74.86 86.35 25.14 86.35"/>
      <path d="M25.29,7.2H74.71L99.42,50,74.71,92.8H25.29L.58,50,25.29,7.2M25,6.7,0,50,25,93.3H75L100,50,75,6.7Z" transform="translate(0 -6.7)"/>
    </g>
    <g>
      <polygon class="b" points="26.79 83.5 3.58 43.3 26.79 3.1 73.21 3.1 96.42 43.3 73.21 83.5 26.79 83.5"/>
      <path class="c" d="M72.92,10.3,95.85,50,72.92,89.7H27.08L4.15,50,27.08,10.3H72.92m.58-1h-47L3,50,26.5,90.7h47L97,50,73.5,9.3Z" transform="translate(0 -6.7)"/>
    </g>
    <circle class="a" cx="50" cy="43.3" r="20"/>
    <path class="a" d="M37.5,2.3h25a0,0,0,0,1,0,0v8.76a9.24,9.24,0,0,1-9.24,9.24H46.74a9.24,9.24,0,0,1-9.24-9.24V2.3a0,0,0,0,1,0,0Z"/>
    <path class="a" d="M37.5,73h25a0,0,0,0,1,0,0v8.76A9.24,9.24,0,0,1,53.26,91H46.74a9.24,9.24,0,0,1-9.24-9.24V73A0,0,0,0,1,37.5,73Z" transform="translate(100 157.3) rotate(-180)"/>
  </g>
  <g>
    <text class="d" transform="translate(61.19 20.75) rotate(33.05)">K</text>
    <text class="d" transform="translate(65.78 23.63) rotate(46.2)">A</text>
    <text class="d" transform="translate(70.09 28) rotate(60.71)">N</text>
    <text class="d" transform="translate(73.31 33.84) rotate(73.97)">S</text>
    <text class="d" transform="translate(74.77 38.54) rotate(86.65)">A</text>
    <text class="d" transform="translate(75.1 44.72) rotate(99.18)">S</text>
    <text class="d" transform="translate(74.22 49.66) rotate(107.37)"> </text>
    <text class="d" transform="translate(73.77 51.66) rotate(116.51)">C</text>
    <text class="d" transform="matrix(-0.59, 0.81, -0.81, -0.59, 71.02, 56.91)">I</text>
    <text class="d" transform="translate(69.76 58.84) rotate(134.23)">T</text>
    <text class="d" transform="translate(66.36 62.42) rotate(146)">Y</text>
    <text class="d" transform="translate(38.81 65.85) rotate(-146.95)">K</text>
    <text class="d" transform="translate(34.23 62.97) rotate(-133.8)">A</text>
    <text class="d" transform="translate(29.91 58.6) rotate(-119.29)">N</text>
    <text class="d" transform="translate(26.7 52.75) rotate(-106.03)">S</text>
    <text class="d" transform="translate(25.24 48.06) rotate(-93.35)">A</text>
    <text class="d" transform="translate(24.9 41.88) rotate(-80.82)">S</text>
    <text class="d" transform="translate(25.79 36.94) rotate(-72.63)"> </text>
    <text class="d" transform="translate(26.23 34.93) rotate(-63.49)">C</text>
    <text class="d" transform="matrix(0.59, -0.81, 0.81, 0.59, 28.99, 29.69)">I</text>
    <text class="d" transform="translate(30.24 27.76) rotate(-45.77)">T</text>
    <text class="d" transform="translate(33.64 24.18) rotate(-34)">Y</text>
    <text class="e" transform="translate(45.73 79.86)">3</text>
    <text class="e" transform="translate(54.27 6.74) rotate(180)">3</text>
  </g>
</svg>
