<svg xmlns="http://www.w3.org/2000/svg" viewBox="0 0 100 86.6">
  <defs>
    <style>
      .a {
        fill: #333;
      }

      .b {
        fill: red;
      }

      .c, .e {
        fill: #f2f2f2;
      }

      .d {
        font-size: 10px;
        fill: #fff;
        font-family: KozGoPr6N-Regular-83pv-RKSJ-H, Kozuka Gothic Pr6N;
      }

      .e {
        font-size: 12px;
        font-family: HiraKakuPro-W6-83pv-RKSJ-H, Hiragino Kaku Gothic Pro;
      }
    </style>
  </defs>
  <g>
    <g>
      <polygon class="a" points="25.14 86.35 0.29 43.3 25.14 0.25 74.86 0.25 99.71 43.3 74.86 86.35 25.14 86.35"/>
      <path d="M25.29,7.2H74.71L99.42,50,74.71,92.8H25.29L.58,50,25.29,7.2M25,6.7,0,50,25,93.3H75L100,50,75,6.7Z" transform="translate(0 -6.7)"/>
    </g>
    <g>
      <polygon class="b" points="26.79 83.5 3.58 43.3 26.79 3.1 73.21 3.1 96.42 43.3 73.21 83.5 26.79 83.5"/>
      <path class="c" d="M72.92,10.3,95.85,50,72.92,89.7H27.08L4.15,50,27.08,10.3H72.92m.58-1h-47L3,50,26.5,90.7h47L97,50,73.5,9.3Z" transform="translate(0 -6.7)"/>
    </g>
    <circle class="c" cx="50" cy="43.3" r="20"/>
    <path class="a" d="M37.5,2.3h25a0,0,0,0,1,0,0v8.76a9.24,9.24,0,0,1-9.24,9.24H46.74a9.24,9.24,0,0,1-9.24-9.24V2.3a0,0,0,0,1,0,0Z"/>
    <path class="a" d="M37.5,73h25a0,0,0,0,1,0,0v8.76A9.24,9.24,0,0,1,53.26,91H46.74a9.24,9.24,0,0,1-9.24-9.24V73A0,0,0,0,1,37.5,73Z" transform="translate(100 157.3) rotate(-180)"/>
  </g>
  <g>
    <text class="d" transform="matrix(0.56, 0.83, -0.83, 0.56, 68.7, 26.33)">D</text>
    <text class="d" transform="matrix(0.36, 0.93, -0.93, 0.36, 72.43, 31.93)">E</text>
    <text class="d" transform="matrix(0.17, 0.99, -0.99, 0.17, 74.21, 36.5)">T</text>
    <text class="d" transform="matrix(-0.04, 1, -1, -0.04, 75.09, 41.37)">R</text>
    <text class="d" transform="translate(75.04 46.74) rotate(106.17)">O</text>
    <text class="d" transform="translate(72.91 53.41) rotate(116.77)">I</text>
    <text class="d" transform="translate(71.98 55.51) rotate(125.16)">T</text>
    <text class="d" transform="matrix(-0.56, -0.83, 0.83, -0.56, 31.3, 60.27)">D</text>
    <text class="d" transform="matrix(-0.36, -0.93, 0.93, -0.36, 27.57, 54.67)">E</text>
    <text class="d" transform="matrix(-0.17, -0.99, 0.99, -0.17, 25.79, 50.1)">T</text>
    <text class="d" transform="matrix(0.04, -1, 1, 0.04, 24.91, 45.23)">R</text>
    <text class="d" transform="translate(24.96 39.86) rotate(-73.83)">O</text>
    <text class="d" transform="translate(27.09 33.19) rotate(-63.23)">I</text>
    <text class="d" transform="translate(28.02 31.08) rotate(-54.84)">T</text>
    <text class="e" transform="translate(45.73 79.86)">3</text>
    <text class="e" transform="translate(54.27 6.74) rotate(180)">3</text>
  </g>
</svg>
