<svg xmlns="http://www.w3.org/2000/svg" viewBox="0 0 100 86.6">
  <defs>
    <style>
      .a {
        fill: #333;
      }

      .b {
        fill: #0071bc;
      }

      .c, .e {
        fill: #f2f2f2;
      }

      .d {
        font-size: 10px;
        fill: #fff;
        font-family: KozGoPr6N-Regular-83pv-RKSJ-H, Kozuka Gothic Pr6N;
      }

      .e {
        font-size: 12px;
        font-family: HiraKakuPro-W6-83pv-RKSJ-H, Hiragino Kaku Gothic Pro;
      }
    </style>
  </defs>
  <g>
    <g>
      <polygon class="a" points="25.14 86.35 0.29 43.3 25.14 0.25 74.86 0.25 99.71 43.3 74.86 86.35 25.14 86.35"/>
      <path d="M25.29,7.2H74.71L99.42,50,74.71,92.8H25.29L.58,50,25.29,7.2M25,6.7,0,50,25,93.3H75L100,50,75,6.7Z" transform="translate(0 -6.7)"/>
    </g>
    <g>
      <polygon class="b" points="26.79 83.5 3.58 43.3 26.79 3.1 73.21 3.1 96.42 43.3 73.21 83.5 26.79 83.5"/>
      <path class="c" d="M72.92,10.3,95.85,50,72.92,89.7H27.08L4.15,50,27.08,10.3H72.92m.58-1h-47L3,50,26.5,90.7h47L97,50,73.5,9.3Z" transform="translate(0 -6.7)"/>
    </g>
    <circle class="c" cx="50" cy="43.3" r="20"/>
    <path class="a" d="M37.5,2.3h25a0,0,0,0,1,0,0v8.76a9.24,9.24,0,0,1-9.24,9.24H46.74a9.24,9.24,0,0,1-9.24-9.24V2.3a0,0,0,0,1,0,0Z"/>
    <path class="a" d="M37.5,73h25a0,0,0,0,1,0,0v8.76A9.24,9.24,0,0,1,53.26,91H46.74a9.24,9.24,0,0,1-9.24-9.24V73A0,0,0,0,1,37.5,73Z" transform="translate(100 157.3) rotate(-180)"/>
  </g>
  <g>
    <text class="d" transform="translate(63.13 21.86) rotate(37.52)">E</text>
    <text class="d" transform="matrix(0.65, 0.76, -0.76, 0.65, 67.07, 24.79)">V</text>
    <text class="d" transform="translate(70.75 28.97) rotate(62.79)">A</text>
    <text class="d" transform="translate(73.64 34.39) rotate(77.45)">N</text>
    <text class="d" transform="translate(75.05 40.9) rotate(90.93)">S</text>
    <text class="d" transform="matrix(-0.22, 0.98, -0.98, -0.22, 75.06, 45.82)">V</text>
    <text class="d" transform="translate(73.72 51.32) rotate(111.61)">I</text>
    <text class="d" transform="translate(72.98 53.5) rotate(119.77)">L</text>
    <text class="d" transform="translate(70.65 57.62) rotate(130.56)">L</text>
    <text class="d" transform="translate(67.61 61.24) rotate(141.5)">E</text>
    <text class="d" transform="translate(36.87 64.74) rotate(-142.48)">E</text>
    <text class="d" transform="matrix(-0.65, -0.76, 0.76, -0.65, 32.93, 61.8)">V</text>
    <text class="d" transform="translate(29.25 57.63) rotate(-117.21)">A</text>
    <text class="d" transform="translate(26.37 52.21) rotate(-102.55)">N</text>
    <text class="d" transform="translate(24.96 45.69) rotate(-89.07)">S</text>
    <text class="d" transform="matrix(0.22, -0.98, 0.98, 0.22, 24.95, 40.78)">V</text>
    <text class="d" transform="translate(26.28 35.28) rotate(-68.39)">I</text>
    <text class="d" transform="translate(27.03 33.1) rotate(-60.23)">L</text>
    <text class="d" transform="translate(29.35 28.98) rotate(-49.44)">L</text>
    <text class="d" transform="translate(32.39 25.36) rotate(-38.5)">E</text>
    <text class="e" transform="translate(45.73 79.86)">1</text>
    <text class="e" transform="translate(54.27 6.74) rotate(180)">1</text>
  </g>
</svg>
