<svg xmlns="http://www.w3.org/2000/svg" viewBox="0 0 100 86.6">
  <defs>
    <style>
      .a {
        fill: #f2f2f2;
      }

      .b {
        fill: #ed1c24;
      }

      .c {
        fill: #a67c52;
      }

      .d {
        font-size: 10px;
        fill: #fff;
        font-family: KozGoPr6N-Regular-83pv-RKSJ-H, Kozuka Gothic Pr6N;
      }

      .e {
        font-size: 12px;
        fill: #754c24;
        font-family: HiraKakuPro-W6-83pv-RKSJ-H, Hiragino Kaku Gothic Pro;
      }
    </style>
  </defs>
  <g>
    <g>
      <polygon class="a" points="25.14 86.35 0.29 43.3 25.14 0.25 74.86 0.25 99.71 43.3 74.86 86.35 25.14 86.35"/>
      <path d="M25.29,7.2H74.71L99.42,50,74.71,92.8H25.29L.58,50,25.29,7.2M25,6.7,0,50,25,93.3H75L100,50,75,6.7Z" transform="translate(0 -6.7)"/>
    </g>
    <g>
      <polygon class="b" points="26.79 83.5 3.58 43.3 26.79 3.1 73.21 3.1 96.42 43.3 73.21 83.5 26.79 83.5"/>
      <path class="c" d="M72.92,10.3,95.85,50,72.92,89.7H27.08L4.15,50,27.08,10.3H72.92m.58-1h-47L3,50,26.5,90.7h47L97,50,73.5,9.3Z" transform="translate(0 -6.7)"/>
    </g>
    <circle class="a" cx="50" cy="43.3" r="20"/>
    <path class="a" d="M37.5,2.3h25a0,0,0,0,1,0,0v8.76a9.24,9.24,0,0,1-9.24,9.24H46.74a9.24,9.24,0,0,1-9.24-9.24V2.3a0,0,0,0,1,0,0Z"/>
    <path class="a" d="M37.5,73h25a0,0,0,0,1,0,0v8.76A9.24,9.24,0,0,1,53.26,91H46.74a9.24,9.24,0,0,1-9.24-9.24V73A0,0,0,0,1,37.5,73Z" transform="translate(100 157.3) rotate(-180)"/>
  </g>
  <g>
    <text class="d" transform="translate(67.31 24.99) rotate(50.43)">C</text>
    <text class="d" transform="translate(71.08 29.4) rotate(64.53)">H</text>
    <text class="d" transform="translate(73.79 35.49) rotate(74.77)">I</text>
    <text class="d" transform="translate(74.56 37.65) rotate(84.2)">C</text>
    <text class="d" transform="translate(75.22 43.43) rotate(97.7)">A</text>
    <text class="d" transform="matrix(-0.38, 0.93, -0.93, -0.38, 74.47, 49.52)">G</text>
    <text class="d" transform="translate(72.11 55.54) rotate(127.39)">O</text>
    <text class="d" transform="translate(32.7 61.61) rotate(-129.57)">C</text>
    <text class="d" transform="translate(28.92 57.2) rotate(-115.47)">H</text>
    <text class="d" transform="translate(26.21 51.11) rotate(-105.23)">I</text>
    <text class="d" transform="translate(25.44 48.95) rotate(-95.8)">C</text>
    <text class="d" transform="translate(24.79 43.17) rotate(-82.3)">A</text>
    <text class="d" transform="matrix(0.38, -0.93, 0.93, 0.38, 25.53, 37.08)">G</text>
    <text class="d" transform="translate(27.89 31.05) rotate(-52.61)">O</text>
    <text class="e" transform="translate(45.73 79.86)">1</text>
    <text class="e" transform="translate(54.27 6.74) rotate(180)">1</text>
  </g>
</svg>
