<svg xmlns="http://www.w3.org/2000/svg" viewBox="0 0 100 86.6">
  <defs>
    <style>
      .a {
        fill: #f2f2f2;
      }

      .b {
        fill: #ed1c24;
      }

      .c {
        fill: #a67c52;
      }

      .d {
        font-size: 10px;
        fill: #fff;
        font-family: KozGoPr6N-Regular-83pv-RKSJ-H, Kozuka Gothic Pr6N;
      }

      .e {
        font-size: 12px;
        fill: #754c24;
        font-family: HiraKakuPro-W6-83pv-RKSJ-H, Hiragino Kaku Gothic Pro;
      }
    </style>
  </defs>
  <g>
    <g>
      <polygon class="a" points="25.14 86.35 0.29 43.3 25.14 0.25 74.86 0.25 99.71 43.3 74.86 86.35 25.14 86.35"/>
      <path d="M25.29,7.2H74.71L99.42,50,74.71,92.8H25.29L.58,50,25.29,7.2M25,6.7,0,50,25,93.3H75L100,50,75,6.7Z" transform="translate(0 -6.7)"/>
    </g>
    <g>
      <polygon class="b" points="26.79 83.5 3.58 43.3 26.79 3.1 73.21 3.1 96.42 43.3 73.21 83.5 26.79 83.5"/>
      <path class="c" d="M72.92,10.3,95.85,50,72.92,89.7H27.08L4.15,50,27.08,10.3H72.92m.58-1h-47L3,50,26.5,90.7h47L97,50,73.5,9.3Z" transform="translate(0 -6.7)"/>
    </g>
    <circle class="a" cx="50" cy="43.3" r="20"/>
    <path class="a" d="M37.5,2.3h25a0,0,0,0,1,0,0v8.76a9.24,9.24,0,0,1-9.24,9.24H46.74a9.24,9.24,0,0,1-9.24-9.24V2.3a0,0,0,0,1,0,0Z"/>
    <path class="a" d="M37.5,73h25a0,0,0,0,1,0,0v8.76A9.24,9.24,0,0,1,53.26,91H46.74a9.24,9.24,0,0,1-9.24-9.24V73A0,0,0,0,1,37.5,73Z" transform="translate(100 157.3) rotate(-180)"/>
  </g>
  <g>
    <text class="d" transform="translate(68.19 25.94) rotate(52.31)">S</text>
    <text class="d" transform="translate(71.23 29.82) rotate(63.58)">T</text>
    <text class="d" transform="matrix(0.31, 0.95, -0.95, 0.31, 73.39, 34.35)"> </text>
    <text class="d" transform="matrix(0.18, 0.98, -0.98, 0.18, 74.15, 36.31)">L</text>
    <text class="d" transform="translate(75.16 40.91) rotate(92.9)">O</text>
    <text class="d" transform="matrix(-0.31, 0.95, -0.95, -0.31, 74.84, 47.81)">U</text>
    <text class="d" transform="translate(72.61 54.06) rotate(118.42)">I</text>
    <text class="d" transform="matrix(-0.6, 0.8, -0.8, -0.6, 71.62, 56.13)">S</text>
    <text class="d" transform="translate(31.82 60.66) rotate(-127.69)">S</text>
    <text class="d" transform="translate(28.78 56.78) rotate(-116.42)">T</text>
    <text class="d" transform="matrix(-0.31, -0.95, 0.95, -0.31, 26.62, 52.24)"> </text>
    <text class="d" transform="matrix(-0.18, -0.98, 0.98, -0.18, 25.86, 50.29)">L</text>
    <text class="d" transform="translate(24.85 45.68) rotate(-87.1)">O</text>
    <text class="d" transform="matrix(0.31, -0.95, 0.95, 0.31, 25.16, 38.78)">U</text>
    <text class="d" transform="translate(27.4 32.53) rotate(-61.58)">I</text>
    <text class="d" transform="matrix(0.6, -0.8, 0.8, 0.6, 28.38, 30.47)">S</text>
    <text class="e" transform="translate(45.73 79.86)">2</text>
    <text class="e" transform="translate(54.27 6.74) rotate(180)">2</text>
  </g>
</svg>
