<svg xmlns="http://www.w3.org/2000/svg" viewBox="0 0 99.71 86.35">
  <g id="base">
    <polygon points="24.93 86.35 0 43.17 24.93 0 74.78 0 99.71 43.17 74.78 86.35 24.93 86.35" style="fill: none" />
  </g>
  <g id="line-5">
    <path d="M8.6,35.6A66.32,66.32,0,0,1,32.78,59.34" transform="translate(-0.14 -6.83)" style="fill: none;stroke-miterlimit: 10;stroke-width: 2px" />
    <path d="M16.5,21.68a82.31,82.31,0,0,1,30,29.49" transform="translate(-0.14 -6.83)" style="fill: none;stroke-miterlimit: 10;stroke-width: 2px" />
    <g>
      <path d="M12.6,28.67l.87.51" transform="translate(-0.14 -6.83)" style="fill: none;stroke-miterlimit: 10;stroke-width: 14px" />
      <path d="M17.1,31.45A74.62,74.62,0,0,1,38,52.61" transform="translate(-0.14 -6.83)" style="fill: none;stroke-miterlimit: 10;stroke-width: 14px;stroke-dasharray: 2.139960765838623,4.279921531677246" />
      <path d="M39.16,54.42l.52.86" transform="translate(-0.14 -6.83)" style="fill: none;stroke-miterlimit: 10;stroke-width: 14px" />
    </g>
  </g>
  <g id="line-3">
    <path d="M32.78,59.34A65.62,65.62,0,0,1,42,93" transform="translate(-0.14 -6.83)" style="fill: none;stroke-miterlimit: 10;stroke-width: 2px" />
    <path d="M46.54,51.17A81.61,81.61,0,0,1,58,93" transform="translate(-0.14 -6.83)" style="fill: none;stroke-miterlimit: 10;stroke-width: 2px" />
    <g>
      <path d="M39.68,55.28c.17.29.34.57.5.86" transform="translate(-0.14 -6.83)" style="fill: none;stroke-miterlimit: 10;stroke-width: 14px" />
      <path d="M42,59.44a73.52,73.52,0,0,1,8,30.68" transform="translate(-0.14 -6.83)" style="fill: none;stroke-miterlimit: 10;stroke-width: 14px;stroke-dasharray: 1.8786828517913818,3.7573657035827637" />
      <path d="M50,92c0,.33,0,.67,0,1" transform="translate(-0.14 -6.83)" style="fill: none;stroke-miterlimit: 10;stroke-width: 14px" />
    </g>
  </g>
  <g id="line-2">
    <g>
      <path d="M87.32,71.69l-.86-.51" transform="translate(-0.14 -6.83)" style="fill: none;stroke-miterlimit: 10;stroke-width: 14px" />
      <path d="M82.94,68.53A24.73,24.73,0,0,1,78,62.46a25,25,0,0,1-3.15-9.26" transform="translate(-0.14 -6.83)" style="fill: none;stroke-miterlimit: 10;stroke-width: 14px;stroke-dasharray: 2.207188606262207,4.414377212524414" />
      <path d="M74.7,51c0-.34,0-.67,0-1" transform="translate(-0.14 -6.83)" style="fill: none;stroke-miterlimit: 10;stroke-width: 14px" />
    </g>
    <path d="M83.32,78.62A33.05,33.05,0,0,1,66.68,50" transform="translate(-0.14 -6.83)" style="fill: none;stroke-miterlimit: 10;stroke-width: 2px" />
    <path d="M91.32,64.76A17,17,0,0,1,82.7,49.29" transform="translate(-0.14 -6.83)" style="fill: none;stroke-miterlimit: 10;stroke-width: 2px" />
  </g>
  <g id="line-1">
    <g>
      <path d="M74.68,50c0-.33,0-.67,0-1" transform="translate(-0.14 -6.83)" style="fill: none;stroke-miterlimit: 10;stroke-width: 14px" />
      <path d="M75.26,44.64a25,25,0,0,1,9.26-14.56" transform="translate(-0.14 -6.83)" style="fill: none;stroke-miterlimit: 10;stroke-width: 14px;stroke-dasharray: 2.200640916824341,4.401281833648682" />
      <path d="M86.33,28.83c.28-.18.57-.35.86-.52" transform="translate(-0.14 -6.83)" style="fill: none;stroke-miterlimit: 10;stroke-width: 14px" />
    </g>
    <path d="M66.68,50A33,33,0,0,1,83.19,21.38" transform="translate(-0.14 -6.83)" style="fill: none;stroke-miterlimit: 10;stroke-width: 2px" />
    <path d="M82.7,49.29a17,17,0,0,1,8.49-14" transform="translate(-0.14 -6.83)" style="fill: none;stroke-miterlimit: 10;stroke-width: 2px" />
  </g>
</svg>