<svg xmlns="http://www.w3.org/2000/svg" viewBox="0 0 99.71 86.35">
  <g id="base">
    <polygon points="24.93 86.35 0 43.17 24.93 0 74.78 0 99.71 43.17 74.78 86.35 24.93 86.35" style="fill: none" />
  </g>
  <g id="line-4">
    <g>
      <path d="M12.37,71.42l.87-.49" transform="translate(-0.14 -6.83)" style="fill: none;stroke-miterlimit: 10;stroke-width: 14px" />
      <path d="M17.33,69.2A25.11,25.11,0,0,1,34.75,70" transform="translate(-0.14 -6.83)" style="fill: none;stroke-miterlimit: 10;stroke-width: 14px;stroke-dasharray: 2.2245540618896484,4.449108123779297" />
      <path d="M36.76,70.93c.29.16.59.32.87.49" transform="translate(-0.14 -6.83)" style="fill: none;stroke-miterlimit: 10;stroke-width: 14px" />
    </g>
    <path d="M8.37,64.49a33,33,0,0,1,33.26,0" transform="translate(-0.14 -6.83)" style="fill: none;stroke-miterlimit: 10;stroke-width: 2px" />
    <path d="M16.37,78.35a17,17,0,0,1,17.26,0" transform="translate(-0.14 -6.83)" style="fill: none;stroke-miterlimit: 10;stroke-width: 2px" />
  </g>
  <g id="line-3">
    <g>
      <path d="M37.63,71.42l.85.52" transform="translate(-0.14 -6.83)" style="fill: none;stroke-miterlimit: 10;stroke-width: 14px" />
      <path d="M41.94,74.61A25,25,0,0,1,49.8,89.82" transform="translate(-0.14 -6.83)" style="fill: none;stroke-miterlimit: 10;stroke-width: 14px;stroke-dasharray: 2.1832754611968994,4.366550922393799" />
      <path d="M50,92c0,.33,0,.67,0,1" transform="translate(-0.14 -6.83)" style="fill: none;stroke-miterlimit: 10;stroke-width: 14px" />
    </g>
    <path d="M41.63,64.49A33,33,0,0,1,58,93" transform="translate(-0.14 -6.83)" style="fill: none;stroke-miterlimit: 10;stroke-width: 2px" />
    <path d="M33.63,78.35A17,17,0,0,1,42,93" transform="translate(-0.14 -6.83)" style="fill: none;stroke-miterlimit: 10;stroke-width: 2px" />
  </g>
</svg>