<svg xmlns="http://www.w3.org/2000/svg" viewBox="0 0 99.71 86.35">
  <g id="base">
    <polygon points="24.93 86.35 0 43.17 24.93 0 74.78 0 99.71 43.17 74.78 86.35 24.93 86.35" style="fill: none" />
  </g>
  <g id="line-5">
    <line x1="53.86" y1="36.25" x2="16.62" y2="14.75" style="fill: none;stroke-miterlimit: 10;stroke-width: 2px" />
    <line x1="8.62" y1="28.6" x2="45.86" y2="50.1" style="fill: none;stroke-miterlimit: 10;stroke-width: 2px" />
    <path d="M15.36,30,50,50" transform="translate(-0.14 -6.83)" style="fill: none;stroke-miterlimit: 10;stroke-width: 14px;stroke-dasharray: 2,4" />
  </g>
  <g id="line-3">
    <line x1="57.86" y1="86.17" x2="57.86" y2="43.17" style="fill: none;stroke-miterlimit: 10;stroke-width: 2px" />
    <line x1="41.86" y1="43.17" x2="41.86" y2="86.17" style="fill: none;stroke-miterlimit: 10;stroke-width: 2px" />
    <path d="M50,90V50" transform="translate(-0.14 -6.83)" style="fill: none;stroke-miterlimit: 10;stroke-width: 14px;stroke-dasharray: 2,4" />
  </g>
  <g id="line-2">
    <line x1="91.09" y1="57.75" x2="53.86" y2="36.25" style="fill: none;stroke-miterlimit: 10;stroke-width: 2px" />
    <line x1="45.86" y1="50.1" x2="83.09" y2="71.6" style="fill: none;stroke-miterlimit: 10;stroke-width: 2px" />
    <path d="M84.64,70,50,50" transform="translate(-0.14 -6.83)" style="fill: none;stroke-miterlimit: 10;stroke-width: 14px;stroke-dasharray: 2,4" />
  </g>
  <g id="line-0">
    <line x1="57.86" y1="43.17" x2="57.86" y2="0.17" style="fill: none;stroke-miterlimit: 10;stroke-width: 2px" />
    <line x1="41.86" y1="0.17" x2="41.86" y2="43.17" style="fill: none;stroke-miterlimit: 10;stroke-width: 2px" />
    <path d="M50,10V50" transform="translate(-0.14 -6.83)" style="fill: none;stroke-miterlimit: 10;stroke-width: 14px;stroke-dasharray: 2,4" />
  </g>
</svg>