<svg xmlns="http://www.w3.org/2000/svg" viewBox="0 0 99.71 86.35">
  <g id="base">
    <polygon points="24.93 86.35 0 43.17 24.93 0 74.78 0 99.71 43.17 74.78 86.35 24.93 86.35" style="fill: none" />
  </g>
  <g id="line-3">
    <line x1="57.86" y1="86.17" x2="57.86" y2="43.17" style="fill: none;stroke-miterlimit: 10;stroke-width: 2px" />
    <line x1="41.86" y1="43.17" x2="41.86" y2="86.17" style="fill: none;stroke-miterlimit: 10;stroke-width: 2px" />
    <path d="M50,90V50" transform="translate(-0.14 -6.83)" style="fill: none;stroke-miterlimit: 10;stroke-width: 14px;stroke-dasharray: 2,4" />
  </g>
  <g id="line-2">
    <g>
      <path d="M87.32,71.69l-.86-.51" transform="translate(-0.14 -6.83)" style="fill: none;stroke-miterlimit: 10;stroke-width: 14px" />
      <path d="M82.94,68.53A24.73,24.73,0,0,1,78,62.46a25,25,0,0,1-3.15-9.26" transform="translate(-0.14 -6.83)" style="fill: none;stroke-miterlimit: 10;stroke-width: 14px;stroke-dasharray: 2.2070891857147217,4.414178371429443" />
      <path d="M74.7,51c0-.33,0-.67,0-1" transform="translate(-0.14 -6.83)" style="fill: none;stroke-miterlimit: 10;stroke-width: 14px" />
    </g>
    <path d="M83.32,78.62A33.05,33.05,0,0,1,66.68,50" transform="translate(-0.14 -6.83)" style="fill: none;stroke-miterlimit: 10;stroke-width: 2px" />
    <path d="M91.32,64.76A17,17,0,0,1,82.69,50" transform="translate(-0.14 -6.83)" style="fill: none;stroke-miterlimit: 10;stroke-width: 2px" />
  </g>
  <g id="line-1">
    <g>
      <path d="M74.68,50c0-.33,0-.67,0-1" transform="translate(-0.14 -6.83)" style="fill: none;stroke-miterlimit: 10;stroke-width: 14px" />
      <path d="M75.26,44.64a24.9,24.9,0,0,1,9.26-14.55" transform="translate(-0.14 -6.83)" style="fill: none;stroke-miterlimit: 10;stroke-width: 14px;stroke-dasharray: 2.200740337371826,4.401480674743652" />
      <path d="M86.33,28.83c.28-.18.57-.35.86-.52" transform="translate(-0.14 -6.83)" style="fill: none;stroke-miterlimit: 10;stroke-width: 14px" />
    </g>
    <path d="M66.68,50A33,33,0,0,1,83.19,21.38" transform="translate(-0.14 -6.83)" style="fill: none;stroke-miterlimit: 10;stroke-width: 2px" />
    <path d="M82.69,50a17,17,0,0,1,8.5-14.76" transform="translate(-0.14 -6.83)" style="fill: none;stroke-miterlimit: 10;stroke-width: 2px" />
  </g>
  <g id="line-0">
    <line x1="57.86" y1="43.17" x2="57.86" y2="0.17" style="fill: none;stroke-miterlimit: 10;stroke-width: 2px" />
    <line x1="41.86" y1="0.17" x2="41.86" y2="43.17" style="fill: none;stroke-miterlimit: 10;stroke-width: 2px" />
    <path d="M50,10V50" transform="translate(-0.14 -6.83)" style="fill: none;stroke-miterlimit: 10;stroke-width: 14px;stroke-dasharray: 2,4" />
  </g>
</svg>