<svg xmlns="http://www.w3.org/2000/svg" viewBox="0 0 100 86.6">
  <defs>
    <style>
      .a {
        fill: none;
      }

      .b, .c {
        fill: blue;
      }

      .b {
        stroke: blue;
        stroke-linejoin: round;
      }
    </style>
  </defs>
  <g>
    <polygon class="a" points="25.07 86.47 0.14 43.3 25.07 0.13 74.93 0.13 99.86 43.3 74.93 86.47 25.07 86.47"/>
    <path class="a" d="M25.14,7H74.86L99.71,50,74.86,93.05H25.14L.29,50,25.14,7M25,6.7,0,50,25,93.3H75L100,50,75,6.7Z" transform="translate(0 -6.7)"/>
  </g>
  <g>
    <rect class="b" x="36.34" y="40.35" width="28.49" height="9.12"/>
    <rect class="b" x="39.35" y="35.63" width="3.26" height="5.95"/>
    <rect class="b" x="38.07" y="33.36" width="5.82" height="2.33"/>
    <rect class="b" x="49.61" y="34.53" width="15.23" height="6.01"/>
    <rect class="b" x="34" y="47.23" width="32" height="2.23"/>
    <g>
      <ellipse class="c" cx="48.43" cy="49.83" rx="3.51" ry="3.35"/>
      <ellipse class="c" cx="40.63" cy="49.89" rx="3.51" ry="3.35"/>
      <ellipse class="c" cx="59.36" cy="49.83" rx="3.51" ry="3.35"/>
    </g>
  </g>
</svg>
